<svg width="581" height="113" viewBox="0 0 581 113" fill="none" xmlns="http://www.w3.org/2000/svg">
<path d="M69 60.2V86H0.36V80.84H1.44C3.44 80.84 5.08 80.56 6.36 80C7.72 79.44 8.4 78.28 8.4 76.52V10.28C8.4 8.51999 7.72 7.35999 6.36 6.8C5.08 6.23999 3.44 5.95999 1.44 5.95999H0.36V0.799995H66.36V23.6H60.48L58.32 12.68C58.08 11.16 57.48 9.99999 56.52 9.19999C55.56 8.4 54.2 7.84 52.44 7.51999C50.68 7.19999 48.52 7.03999 45.96 7.03999H31.56V79.76H46.44C48.84 79.76 50.88 79.68 52.56 79.52C54.24 79.36 55.6 79.08 56.64 78.68C57.76 78.2 58.6 77.6 59.16 76.88C59.8 76.08 60.2 75.12 60.36 74L62.88 60.2H69ZM29.04 39.68C32.96 39.52 36.52 39.32 39.72 39.08C42.92 38.84 45.92 38.56 48.72 38.24C51.52 37.84 54.28 37.36 57 36.8V48.08C54.28 47.52 51.52 47.04 48.72 46.64C45.92 46.24 42.92 45.92 39.72 45.68C36.52 45.36 32.96 45.16 29.04 45.08V39.68ZM103.055 23.6V68.12C103.055 70.36 103.295 72.2 103.775 73.64C104.255 75 104.975 76 105.935 76.64C106.895 77.28 108.135 77.6 109.655 77.6C111.415 77.6 113.055 77.16 114.575 76.28C116.175 75.32 117.655 73.96 119.015 72.2C120.455 70.44 121.775 68.24 122.975 65.6L125.135 70.04C123.535 73.72 121.535 76.84 119.135 79.4C116.815 81.96 114.135 83.92 111.095 85.28C108.135 86.56 104.815 87.2 101.135 87.2C97.0547 87.2 93.4947 86.44 90.4547 84.92C87.4947 83.32 85.1747 80.96 83.4947 77.84C81.8947 74.72 81.0947 70.92 81.0947 66.44V32.84C81.0947 31.56 80.6947 30.68 79.8947 30.2C79.1747 29.72 77.8947 29.28 76.0547 28.88L74.8547 28.64V23.6H103.055ZM143.375 23.6V77.36C143.375 78.24 143.575 78.92 143.975 79.4C144.455 79.88 145.095 80.24 145.895 80.48C146.775 80.64 147.775 80.76 148.895 80.84L149.735 80.96V86H122.855V72.32L121.535 72.8V32.84C121.535 31.56 120.975 30.64 119.855 30.08C118.735 29.52 117.215 29.12 115.295 28.88L113.375 28.64V23.6H143.375ZM203.05 23.36V41.48C202.41 41.32 201.69 41.16 200.89 41C200.09 40.84 199.25 40.72 198.37 40.64C197.49 40.56 196.57 40.52 195.61 40.52C193.93 40.52 192.33 40.68 190.81 41C189.29 41.32 187.85 41.84 186.49 42.56C185.13 43.2 183.89 44.08 182.77 45.2C181.73 46.32 180.85 47.64 180.13 49.16L179.77 45.2C180.97 40.96 182.37 37.16 183.97 33.8C185.57 30.36 187.57 27.68 189.97 25.76C192.45 23.76 195.33 22.76 198.61 22.76C199.65 22.76 200.53 22.84 201.25 23C202.05 23.08 202.65 23.2 203.05 23.36ZM154.33 86V81.08H154.45C156.21 81.08 157.69 80.88 158.89 80.48C160.09 80 160.69 79.08 160.69 77.72V32.84C160.69 31.96 160.49 31.28 160.09 30.8C159.77 30.32 159.21 29.96 158.41 29.72C157.69 29.4 156.73 29.12 155.53 28.88L154.33 28.64V23.6H181.21V43.52L182.53 42.92V79.76C182.53 80.08 182.89 80.36 183.61 80.6C184.41 80.76 185.33 80.88 186.37 80.96C187.49 81.04 188.53 81.08 189.49 81.08H191.29V86H154.33ZM278.565 54.92C278.565 61.24 277.125 66.84 274.245 71.72C271.445 76.6 267.405 80.4 262.125 83.12C256.925 85.84 250.765 87.2 243.645 87.2C236.605 87.2 230.445 85.84 225.165 83.12C219.885 80.4 215.805 76.64 212.925 71.84C210.125 66.96 208.725 61.32 208.725 54.92C208.725 50.12 209.525 45.72 211.125 41.72C212.725 37.72 215.045 34.28 218.085 31.4C221.205 28.52 224.885 26.32 229.125 24.8C233.445 23.2 238.285 22.4 243.645 22.4C249.005 22.4 253.805 23.2 258.045 24.8C262.365 26.32 266.045 28.52 269.085 31.4C272.205 34.28 274.565 37.72 276.165 41.72C277.765 45.72 278.565 50.12 278.565 54.92ZM231.165 54.92C231.165 61 231.605 66 232.485 69.92C233.445 73.84 234.845 76.72 236.685 78.56C238.605 80.4 240.925 81.32 243.645 81.32C246.445 81.32 248.725 80.4 250.485 78.56C252.325 76.72 253.725 73.84 254.685 69.92C255.645 66 256.125 60.96 256.125 54.8C256.125 48.64 255.645 43.64 254.685 39.8C253.725 35.88 252.325 33 250.485 31.16C248.725 29.32 246.445 28.4 243.645 28.4C240.925 28.4 238.605 29.32 236.685 31.16C234.845 33 233.445 35.88 232.485 39.8C231.605 43.64 231.165 48.68 231.165 54.92ZM321.003 112.76H284.643V107.84H284.763C285.883 107.84 286.883 107.76 287.763 107.6C288.723 107.44 289.483 107.08 290.043 106.52C290.603 106.04 290.883 105.36 290.883 104.48V32.84C290.883 31.96 290.723 31.28 290.403 30.8C290.083 30.32 289.523 29.96 288.723 29.72C288.003 29.4 287.043 29.12 285.843 28.88L284.643 28.64V23.6H311.403V37.16L312.843 37.28V106.76C312.843 107 313.203 107.2 313.923 107.36C314.643 107.52 315.563 107.64 316.683 107.72C317.883 107.8 319.003 107.84 320.043 107.84H321.003V112.76ZM330.243 87.2C326.323 87.2 322.883 86.64 319.923 85.52C317.043 84.32 314.563 82.44 312.483 79.88C310.403 77.32 308.603 73.88 307.083 69.56L310.443 64.88C311.403 68.16 312.483 70.88 313.683 73.04C314.963 75.2 316.483 76.84 318.243 77.96C320.003 79 321.963 79.52 324.123 79.52C326.283 79.52 328.123 78.96 329.643 77.84C331.163 76.72 332.403 75.08 333.363 72.92C334.403 70.76 335.163 68.12 335.643 65C336.203 61.8 336.483 58.16 336.483 54.08C336.483 50.16 336.243 46.76 335.763 43.88C335.283 40.92 334.563 38.52 333.603 36.68C332.723 34.76 331.563 33.36 330.123 32.48C328.763 31.52 327.123 31.04 325.203 31.04C322.963 31.04 320.923 31.68 319.083 32.96C317.243 34.16 315.523 35.96 313.923 38.36C312.323 40.76 310.843 43.6 309.483 46.88L306.963 42.2C308.963 37.72 311.123 34.04 313.443 31.16C315.843 28.2 318.563 26 321.603 24.56C324.643 23.12 328.123 22.4 332.043 22.4C337.403 22.4 342.083 23.72 346.083 26.36C350.163 29 353.323 32.72 355.563 37.52C357.803 42.24 358.923 47.76 358.923 54.08C358.923 60.56 357.683 66.32 355.203 71.36C352.803 76.32 349.443 80.2 345.123 83C340.803 85.8 335.843 87.2 330.243 87.2ZM388.302 55.16C388.302 59.56 388.622 63.36 389.262 66.56C389.982 69.76 391.062 72.4 392.502 74.48C393.942 76.48 395.702 78 397.782 79.04C399.942 80.08 402.422 80.6 405.222 80.6C408.182 80.6 410.822 80.04 413.142 78.92C415.462 77.8 417.502 76.32 419.262 74.48C421.022 72.64 422.502 70.6 423.702 68.36L428.622 71.84C427.022 74.88 424.982 77.56 422.502 79.88C420.022 82.2 417.022 84 413.502 85.28C410.062 86.56 406.022 87.2 401.382 87.2C394.422 87.2 388.302 85.92 383.022 83.36C377.742 80.72 373.622 77 370.662 72.2C367.782 67.32 366.342 61.6 366.342 55.04C366.342 48.48 367.742 42.76 370.542 37.88C373.422 33 377.342 29.2 382.302 26.48C387.342 23.76 392.982 22.4 399.222 22.4C404.182 22.4 408.542 23.12 412.302 24.56C416.062 26 419.222 28.12 421.782 30.92C424.422 33.64 426.382 37.04 427.662 41.12C429.022 45.2 429.742 49.88 429.822 55.16H379.422L379.302 49.52H412.302L409.542 50.96C409.462 46.64 409.222 43.04 408.822 40.16C408.422 37.2 407.822 34.88 407.022 33.2C406.222 31.52 405.222 30.32 404.022 29.6C402.822 28.8 401.382 28.4 399.702 28.4C397.942 28.4 396.342 28.88 394.902 29.84C393.542 30.8 392.342 32.32 391.302 34.4C390.342 36.48 389.582 39.24 389.022 42.68C388.542 46.04 388.302 50.2 388.302 55.16ZM476.392 48.56L476.272 53.72C473.472 54.04 470.952 54.52 468.712 55.16C466.552 55.72 464.632 56.44 462.952 57.32C461.352 58.12 460.032 59.12 458.992 60.32C457.952 61.44 457.192 62.76 456.712 64.28C456.232 65.72 455.992 67.36 455.992 69.2C455.992 71.44 456.272 73.28 456.832 74.72C457.472 76.16 458.352 77.24 459.472 77.96C460.672 78.68 462.032 79.04 463.552 79.04C465.392 79.04 467.032 78.56 468.472 77.6C469.912 76.64 471.232 75.32 472.432 73.64C473.632 71.88 474.632 69.84 475.432 67.52L477.112 71.12C476.152 74.4 474.712 77.24 472.792 79.64C470.952 82.04 468.592 83.92 465.712 85.28C462.832 86.56 459.432 87.2 455.512 87.2C451.432 87.2 447.912 86.56 444.952 85.28C441.992 84 439.712 82.16 438.112 79.76C436.512 77.28 435.712 74.24 435.712 70.64C435.712 67.28 436.592 64.4 438.352 62C440.112 59.52 442.672 57.44 446.032 55.76C449.472 54.08 453.712 52.68 458.752 51.56C463.872 50.36 469.752 49.36 476.392 48.56ZM474.832 86V74.6L473.512 74.72V38.36C473.512 36.04 473.192 34.16 472.552 32.72C471.912 31.2 470.912 30.12 469.552 29.48C468.192 28.76 466.472 28.4 464.392 28.4C461.512 28.4 459.072 28.96 457.072 30.08C455.072 31.2 453.552 32.6 452.512 34.28C452.432 33.4 452.432 32.64 452.512 32C452.672 31.28 452.912 30.64 453.232 30.08C453.632 29.52 454.072 29.04 454.552 28.64C455.112 28.24 455.752 27.92 456.472 27.68V43.04H440.272V30.2C441.392 29.32 443.112 28.28 445.432 27.08C447.752 25.88 450.712 24.8 454.312 23.84C457.912 22.88 462.112 22.4 466.912 22.4C471.072 22.4 474.872 22.84 478.312 23.72C481.752 24.6 484.712 25.92 487.192 27.68C489.672 29.36 491.552 31.56 492.832 34.28C494.192 36.92 494.872 40.08 494.872 43.76V77.36C494.872 78.24 495.072 78.92 495.472 79.4C495.952 79.88 496.592 80.24 497.392 80.48C498.192 80.64 499.192 80.76 500.392 80.84L501.112 80.96V86H474.832ZM505.19 86V81.08H505.31C506.51 81.08 507.55 81 508.43 80.84C509.39 80.68 510.15 80.36 510.71 79.88C511.27 79.32 511.55 78.6 511.55 77.72V32.84C511.55 31.96 511.35 31.28 510.95 30.8C510.63 30.32 510.07 29.96 509.27 29.72C508.55 29.4 507.59 29.12 506.39 28.88L505.19 28.64V23.6H532.07V36.68L533.39 37.04V80C533.39 80.24 533.67 80.44 534.23 80.6C534.79 80.76 535.47 80.88 536.27 80.96C537.15 81.04 537.99 81.08 538.79 81.08H539.03V86H505.19ZM580.55 86H546.71V81.08H546.83C547.55 81.08 548.35 81.04 549.23 80.96C550.11 80.88 550.83 80.76 551.39 80.6C552.03 80.44 552.35 80.24 552.35 80V41.48C552.35 39.24 552.11 37.44 551.63 36.08C551.15 34.72 550.43 33.72 549.47 33.08C548.51 32.36 547.23 32 545.63 32C543.71 32 541.91 32.52 540.23 33.56C538.63 34.52 537.11 35.92 535.67 37.76C534.31 39.6 533.03 41.76 531.83 44.24L530.39 38C532.07 34.72 534.03 31.96 536.27 29.72C538.59 27.4 541.19 25.6 544.07 24.32C547.03 23.04 550.35 22.4 554.03 22.4C558.11 22.4 561.67 23.2 564.71 24.8C567.75 26.4 570.07 28.72 571.67 31.76C573.35 34.8 574.19 38.6 574.19 43.16V77.72C574.19 78.6 574.47 79.32 575.03 79.88C575.59 80.36 576.31 80.68 577.19 80.84C578.07 81 579.11 81.08 580.31 81.08H580.55V86Z" fill="#1E1B28"/>
</svg>
