<svg width="24" height="24" viewBox="0 0 24 24" fill="none" xmlns="http://www.w3.org/2000/svg">
<g clip-path="url(#clip0_13033_394)">
<path d="M12 -0.0262451C5.36926 -0.0262451 -0.0262451 5.36926 -0.0262451 12C-0.0262451 18.6308 5.36926 24.0263 12 24.0263C18.6308 24.0263 24.0263 18.6308 24.0263 12C24.0263 5.36926 18.6308 -0.0262451 12 -0.0262451ZM12 23.2238C5.811 23.2238 0.776255 18.189 0.776255 12C0.776255 5.811 5.811 0.776255 12 0.776255C18.189 0.776255 23.2238 5.811 23.2238 12C23.2238 18.189 18.189 23.2238 12 23.2238Z" fill="#8F5E00"/>
<path d="M14.625 5.25H12.624C10.239 5.25 9.75 6.55275 9.75 8.50875L9.7515 9.75H8.625C8.418 9.75 8.25 9.918 8.25 10.125V12.375C8.25 12.582 8.418 12.75 8.625 12.75H9.75V18.375C9.75 18.582 9.918 18.75 10.125 18.75H12.4185C12.6255 18.75 12.7935 18.582 12.7935 18.375L12.795 12.75H14.625C14.832 12.75 15 12.582 15 12.375V10.125C15 9.918 14.832 9.75 14.625 9.75H12.7943L12.7965 8.703C12.7965 8.19825 12.7965 8.19825 13.2682 8.1975L14.61 8.25C14.7052 8.253 14.811 8.21625 14.8845 8.14575C14.958 8.07525 15 7.977 15 7.875V5.625C15 5.418 14.832 5.25 14.625 5.25ZM14.25 7.485L13.2833 7.4475C12.1425 7.4475 12.0472 8.06775 12.0472 8.7015L12.0443 10.1235C12.0443 10.2232 12.0833 10.3185 12.1537 10.389C12.2235 10.4603 12.3188 10.5 12.4185 10.5H14.25V12H12.42C12.213 12 12.045 12.168 12.045 12.375L12.0435 18H10.5V12.375C10.5 12.168 10.332 12 10.125 12H9V10.5H10.1273C10.227 10.5 10.3223 10.4602 10.3928 10.3897C10.4633 10.3192 10.5023 10.224 10.5023 10.1242L10.5 8.508C10.5 6.80925 10.818 6 12.624 6H14.25V7.485Z" fill="#8F5E00"/>
</g>
<defs>
<clipPath id="clip0_13033_394">
<rect width="24" height="24" fill="white"/>
</clipPath>
</defs>
</svg>
