<svg width="34" height="24" viewBox="0 0 34 24" fill="none" xmlns="http://www.w3.org/2000/svg">
<rect width="34" height="24" rx="2.4" fill="white"/>
<mask id="mask0_12550_301" style="mask-type:alpha" maskUnits="userSpaceOnUse" x="0" y="0" width="34" height="24">
<rect width="34" height="24" rx="2.4" fill="white"/>
</mask>
<g mask="url(#mask0_12550_301)">
<path d="M34 24H0V22.4004H34V24ZM34 20.7998H0V19.2002H34V20.7998ZM34 17.5996H0V16H34V17.5996ZM34 14.4004H0V12.7998H34V14.4004ZM34 11.2002H0V9.59961H34V11.2002ZM34 8H0V6.40039H34V8ZM34 4.7998H0V3.2002H34V4.7998ZM34 1.59961H0V0H34V1.59961Z" fill="#D02F44"/>
<rect width="14.5714" height="11.2" fill="#46467F"/>
<g filter="url(#filter0_d_12550_301)">
<path d="M2.42847 8.00039C2.87555 8.00039 3.23804 8.35837 3.23804 8.8002C3.23793 9.24194 2.87549 9.6 2.42847 9.6C1.98145 9.6 1.619 9.24194 1.6189 8.8002C1.6189 8.35837 1.98138 8.00039 2.42847 8.00039ZM5.66675 8.00039C6.11379 8.00044 6.47632 8.3584 6.47632 8.8002C6.47621 9.2419 6.11373 9.59995 5.66675 9.6C5.21973 9.6 4.85728 9.24194 4.85718 8.8002C4.85718 8.35837 5.21966 8.00039 5.66675 8.00039ZM8.90503 8.00039C9.35189 8.00065 9.71362 8.35853 9.71362 8.8002C9.71352 9.24178 9.35183 9.59974 8.90503 9.6C8.45801 9.6 8.09557 9.24194 8.09546 8.8002C8.09546 8.35837 8.45794 8.00039 8.90503 8.00039ZM12.1423 8.00039C12.5894 8.00039 12.9519 8.35837 12.9519 8.8002C12.9518 9.24194 12.5894 9.6 12.1423 9.6C11.6955 9.59979 11.3329 9.24181 11.3328 8.8002C11.3328 8.3585 11.6954 8.0006 12.1423 8.00039ZM4.04761 6.39981C4.49447 6.39991 4.85696 6.75803 4.85718 7.19961C4.85718 7.64138 4.49461 8.00029 4.04761 8.00039C3.60052 8.00039 3.23804 7.64144 3.23804 7.19961C3.23825 6.75796 3.60065 6.39981 4.04761 6.39981ZM7.28589 6.39981C7.73271 6.39996 8.09525 6.75806 8.09546 7.19961C8.09546 7.64134 7.73284 8.00024 7.28589 8.00039C6.8388 8.00039 6.47632 7.64144 6.47632 7.19961C6.47653 6.75796 6.83893 6.39981 7.28589 6.39981ZM10.5242 6.39981C10.9709 6.40001 11.3335 6.75809 11.3337 7.19961C11.3337 7.64131 10.9711 8.00019 10.5242 8.00039C10.0771 8.00039 9.7146 7.64144 9.7146 7.19961C9.71481 6.75796 10.0772 6.39981 10.5242 6.39981ZM2.42847 4.8002C2.87555 4.8002 3.23804 5.15817 3.23804 5.6C3.23804 6.04183 2.87555 6.39981 2.42847 6.39981C1.98138 6.39981 1.6189 6.04183 1.6189 5.6C1.6189 5.15818 1.98138 4.8002 2.42847 4.8002ZM5.66675 4.8002C6.11379 4.80025 6.47632 5.15821 6.47632 5.6C6.47632 6.0418 6.11379 6.39976 5.66675 6.39981C5.21966 6.39981 4.85718 6.04183 4.85718 5.6C4.85718 5.15817 5.21966 4.8002 5.66675 4.8002ZM8.90503 4.8002C9.35189 4.80046 9.71362 5.15833 9.71362 5.6C9.71362 6.04167 9.35189 6.39955 8.90503 6.39981C8.45794 6.39981 8.09546 6.04183 8.09546 5.6C8.09546 5.15817 8.45794 4.8002 8.90503 4.8002ZM12.1423 4.8002C12.5894 4.8002 12.9519 5.15817 12.9519 5.6C12.9519 6.04183 12.5894 6.39981 12.1423 6.39981C11.6954 6.3996 11.3328 6.0417 11.3328 5.6C11.3328 5.1583 11.6954 4.80041 12.1423 4.8002ZM4.04761 3.19961C4.49461 3.19971 4.85718 3.55863 4.85718 4.00039C4.85696 4.44198 4.49448 4.80009 4.04761 4.8002C3.60065 4.8002 3.23825 4.44204 3.23804 4.00039C3.23804 3.55857 3.60052 3.19961 4.04761 3.19961ZM7.28589 3.19961C7.73284 3.19977 8.09546 3.55866 8.09546 4.00039C8.09525 4.44195 7.73271 4.80004 7.28589 4.8002C6.83893 4.8002 6.47653 4.44204 6.47632 4.00039C6.47632 3.55857 6.8388 3.19961 7.28589 3.19961ZM10.5242 3.19961C10.9711 3.19982 11.3337 3.55869 11.3337 4.00039C11.3335 4.44191 10.9709 4.79999 10.5242 4.8002C10.0772 4.8002 9.71481 4.44204 9.7146 4.00039C9.7146 3.55857 10.0771 3.19961 10.5242 3.19961ZM2.42847 1.6C2.87547 1.60003 3.23793 1.95808 3.23804 2.39981C3.23804 2.84162 2.87553 3.19959 2.42847 3.19961C1.98138 3.19961 1.6189 2.84163 1.6189 2.39981C1.619 1.95807 1.98145 1.6 2.42847 1.6ZM5.66675 1.6C6.11373 1.60005 6.47621 1.9581 6.47632 2.39981C6.47632 2.8416 6.11379 3.19956 5.66675 3.19961C5.21966 3.19961 4.85718 2.84163 4.85718 2.39981C4.85728 1.95807 5.21973 1.6 5.66675 1.6ZM8.90503 1.6C9.35183 1.60026 9.71352 1.95823 9.71362 2.39981C9.71362 2.84147 9.35189 3.19935 8.90503 3.19961C8.45794 3.19961 8.09546 2.84163 8.09546 2.39981C8.09557 1.95807 8.45801 1.6 8.90503 1.6ZM12.1423 1.6C12.5894 1.6 12.9518 1.95807 12.9519 2.39981C12.9519 2.84163 12.5894 3.19961 12.1423 3.19961C11.6954 3.1994 11.3328 2.84151 11.3328 2.39981C11.3329 1.9582 11.6955 1.60021 12.1423 1.6Z" fill="url(#paint0_linear_12550_301)"/>
</g>
</g>
<defs>
<filter id="filter0_d_12550_301" x="1.6189" y="1.6" width="11.333" height="9.2" filterUnits="userSpaceOnUse" color-interpolation-filters="sRGB">
<feFlood flood-opacity="0" result="BackgroundImageFix"/>
<feColorMatrix in="SourceAlpha" type="matrix" values="0 0 0 0 0 0 0 0 0 0 0 0 0 0 0 0 0 0 127 0" result="hardAlpha"/>
<feOffset dy="1.2"/>
<feColorMatrix type="matrix" values="0 0 0 0 0 0 0 0 0 0 0 0 0 0 0 0 0 0 0.06 0"/>
<feBlend mode="normal" in2="BackgroundImageFix" result="effect1_dropShadow_12550_301"/>
<feBlend mode="normal" in="SourceGraphic" in2="effect1_dropShadow_12550_301" result="shape"/>
</filter>
<linearGradient id="paint0_linear_12550_301" x1="1.6189" y1="1.6" x2="1.6189" y2="9.6" gradientUnits="userSpaceOnUse">
<stop stop-color="white"/>
<stop offset="1" stop-color="#F0F0F0"/>
</linearGradient>
</defs>
</svg>
