<svg width="168" height="32" viewBox="0 0 168 32" fill="none" xmlns="http://www.w3.org/2000/svg">
<path d="M18.9389 3.2558C22.0614 2.33751 25.3273 2.46456 27.4594 4.59663C28.9186 6.05577 29.4395 8.07162 29.3295 10.1591C29.2316 12.0188 28.6352 14.0315 27.6508 16.0273C28.1344 17.0075 28.5198 17.9841 28.8003 18.9374C29.7187 22.0601 29.5916 25.3267 27.4594 27.4589C25.3273 29.591 22.0614 29.7181 18.9389 28.7997C17.9855 28.5193 17.0091 28.1339 16.0288 27.6503C15.0485 28.1339 14.072 28.5193 13.1186 28.7997C9.996 29.7182 6.72932 29.5911 4.59713 27.4589C3.13913 26.0009 2.61813 23.9871 2.72701 21.9013C2.82422 20.0403 3.42057 18.0255 4.40572 16.0283C3.92214 15.048 3.53675 14.0715 3.25631 13.1181C2.33789 9.99551 2.46495 6.72882 4.59713 4.59663C6.72932 2.46443 9.996 2.33739 13.1186 3.2558C14.072 3.53625 15.0485 3.92165 16.0288 4.40522C17.0091 3.92166 17.9855 3.53622 18.9389 3.2558ZM6.31685 19.2119C5.96422 20.237 5.768 21.198 5.7231 22.0576C5.64388 23.5747 6.03453 24.6541 6.71822 25.3378C7.71022 26.3298 9.59363 26.7096 12.2719 25.9218C12.4607 25.8663 12.6516 25.8055 12.8442 25.7392C11.6298 24.8773 10.4401 23.8742 9.31099 22.7451C8.18188 21.6159 7.17875 20.4262 6.31685 19.2119ZM12.2719 6.13373C9.59363 5.346 7.71022 5.72572 6.71822 6.71772C5.72624 7.70973 5.34651 9.59315 6.13423 12.2714C6.90377 14.8877 8.71085 17.9027 11.4321 20.624C12.9143 22.1062 14.4842 23.3174 16.0288 24.2372C17.5733 23.3174 19.1423 22.1061 20.6245 20.624C20.9989 20.2495 21.3571 19.8684 21.6977 19.4833C22.2466 18.8632 23.1945 18.8057 23.8149 19.3544C24.4351 19.9033 24.4935 20.8512 23.9448 21.4716C23.5635 21.9027 23.1632 22.3274 22.7456 22.7451C21.6164 23.8742 20.4267 24.8773 19.2124 25.7392C19.4049 25.8055 19.5959 25.8663 19.7846 25.9218C22.4629 26.7095 24.3463 26.3298 25.3383 25.3378C26.3303 24.3458 26.7101 22.4624 25.9223 19.7841C25.6455 18.8431 25.2343 17.8507 24.6948 16.8388C24.6564 16.7785 24.6225 16.7151 24.5932 16.6503C23.6388 14.9076 22.3063 13.1134 20.6245 11.4316C19.1423 9.94947 17.5733 8.73816 16.0288 7.81831C14.4842 8.73819 12.9143 9.94937 11.4321 11.4316C11.0407 11.823 10.6673 12.221 10.3129 12.624C9.76584 13.246 8.81783 13.3068 8.19576 12.7597C7.57417 12.2127 7.51344 11.2655 8.06002 10.6435C8.45682 10.1923 8.8744 9.74709 9.31099 9.31049C10.4401 8.18137 11.6298 7.17825 12.8442 6.31635C12.6516 6.25008 12.4607 6.18925 12.2719 6.13373ZM16.0004 12.9999C17.6571 13.0002 19.0004 14.3433 19.0004 15.9999C19.0004 17.6567 17.6571 18.9997 16.0004 18.9999C14.3436 18.9999 13.0004 17.6568 13.0004 15.9999C13.0005 14.3431 14.3436 12.9999 16.0004 12.9999ZM25.3383 6.71772C24.3463 5.72576 22.4629 5.34601 19.7846 6.13373C19.5959 6.18924 19.405 6.25009 19.2124 6.31635C20.4267 7.17824 21.6164 8.18138 22.7456 9.31049C23.8747 10.4396 24.8778 11.6293 25.7397 12.8437C26.0919 11.8198 26.2882 10.8597 26.3335 10.0009C26.4133 8.48227 26.0225 7.40186 25.3383 6.71772Z" fill="#AD7C00"/>
<path d="M39.598 8.95455H42.2614L46.892 20.2614H47.0625L51.6932 8.95455H54.3565V23.5H52.2685V12.9744H52.1335L47.8438 23.4787H46.1108L41.821 12.9673H41.6861V23.5H39.598V8.95455ZM60.5515 23.7415C59.8602 23.7415 59.2352 23.6136 58.6765 23.358C58.1178 23.0975 57.6751 22.7211 57.3484 22.2287C57.0264 21.7363 56.8654 21.1326 56.8654 20.4176C56.8654 19.8021 56.9838 19.2955 57.2205 18.8977C57.4573 18.5 57.7769 18.1851 58.1793 17.9531C58.5818 17.7211 59.0316 17.5459 59.5288 17.4276C60.0259 17.3092 60.5326 17.2192 61.0487 17.1577C61.7021 17.0819 62.2324 17.0204 62.6396 16.973C63.0468 16.9209 63.3427 16.8381 63.5273 16.7244C63.712 16.6108 63.8043 16.4261 63.8043 16.1705V16.1207C63.8043 15.5005 63.6291 15.0199 63.2788 14.679C62.9331 14.3381 62.417 14.1676 61.7305 14.1676C61.0155 14.1676 60.4521 14.3262 60.0401 14.6435C59.6329 14.956 59.3512 15.304 59.195 15.6875L57.1992 15.233C57.436 14.5701 57.7816 14.035 58.2362 13.6278C58.6954 13.2159 59.2234 12.9176 59.82 12.733C60.4165 12.5436 61.0439 12.4489 61.7021 12.4489C62.1377 12.4489 62.5993 12.5009 63.087 12.6051C63.5794 12.7045 64.0387 12.8892 64.4648 13.1591C64.8957 13.429 65.2485 13.8149 65.5231 14.3168C65.7977 14.8139 65.935 15.4602 65.935 16.2557V23.5H63.8612V22.0085H63.7759C63.6386 22.2831 63.4326 22.553 63.158 22.8182C62.8834 23.0833 62.5307 23.3035 62.0998 23.4787C61.6689 23.6539 61.1528 23.7415 60.5515 23.7415ZM61.0131 22.0369C61.6003 22.0369 62.1022 21.9209 62.5188 21.6889C62.9402 21.4569 63.2598 21.1539 63.4776 20.7798C63.7002 20.401 63.8114 19.9962 63.8114 19.5653V18.1591C63.7357 18.2348 63.5889 18.3059 63.3711 18.3722C63.158 18.4337 62.9142 18.4882 62.6396 18.5355C62.3649 18.5781 62.0974 18.6184 61.837 18.6562C61.5766 18.6894 61.3588 18.7178 61.1836 18.7415C60.7717 18.7936 60.3952 18.8812 60.0543 19.0043C59.7182 19.1274 59.4483 19.3049 59.2447 19.5369C59.0458 19.7642 58.9464 20.0672 58.9464 20.446C58.9464 20.9716 59.1405 21.3693 59.5288 21.6392C59.917 21.9044 60.4118 22.0369 61.0131 22.0369ZM76.9382 15.2543L75.0135 15.5952C74.933 15.349 74.8052 15.1146 74.63 14.892C74.4595 14.6695 74.2275 14.4872 73.9339 14.3452C73.6404 14.2031 73.2734 14.1321 72.8331 14.1321C72.2318 14.1321 71.7299 14.267 71.3274 14.5369C70.925 14.8021 70.7237 15.1454 70.7237 15.5668C70.7237 15.9313 70.8587 16.2249 71.1286 16.4474C71.3984 16.67 71.834 16.8523 72.4354 16.9943L74.1683 17.392C75.1721 17.6241 75.9202 17.9815 76.4126 18.4645C76.9051 18.9474 77.1513 19.5748 77.1513 20.3466C77.1513 21 76.9619 21.5824 76.5831 22.0938C76.209 22.6004 75.6858 22.9981 75.0135 23.2869C74.3459 23.5758 73.5717 23.7202 72.6911 23.7202C71.4695 23.7202 70.4728 23.4598 69.701 22.9389C68.9292 22.4134 68.4557 21.6676 68.2805 20.7017L70.3331 20.3892C70.4609 20.9242 70.7237 21.3291 71.1214 21.6037C71.5192 21.8736 72.0376 22.0085 72.6768 22.0085C73.3729 22.0085 73.9292 21.8641 74.3459 21.5753C74.7625 21.2817 74.9709 20.9242 74.9709 20.5028C74.9709 20.1619 74.843 19.8755 74.5874 19.6435C74.3364 19.4115 73.9505 19.2363 73.4297 19.1179L71.5831 18.7131C70.5651 18.4811 69.8123 18.1117 69.3246 17.6051C68.8416 17.0985 68.6001 16.4569 68.6001 15.6804C68.6001 15.0365 68.7801 14.473 69.1399 13.9901C69.4998 13.5071 69.9969 13.1307 70.6314 12.8608C71.2659 12.5862 71.9927 12.4489 72.8118 12.4489C73.9908 12.4489 74.9188 12.7045 75.5959 13.2159C76.273 13.7225 76.7204 14.402 76.9382 15.2543ZM84.5785 12.5909V14.2955H78.6197V12.5909H84.5785ZM80.2177 9.97727H82.3413V20.2969C82.3413 20.7088 82.4028 21.0189 82.5259 21.2273C82.649 21.4309 82.8076 21.5705 83.0018 21.6463C83.2006 21.7173 83.4161 21.7528 83.6481 21.7528C83.8185 21.7528 83.9677 21.741 84.0955 21.7173C84.2234 21.6937 84.3228 21.6747 84.3938 21.6605L84.7773 23.4148C84.6542 23.4621 84.479 23.5095 84.2518 23.5568C84.0245 23.6089 83.7404 23.6373 83.3995 23.642C82.8408 23.6515 82.32 23.5521 81.837 23.3438C81.354 23.1354 80.9634 22.8134 80.6651 22.3778C80.3668 21.9422 80.2177 21.3954 80.2177 20.7372V9.97727ZM91.5121 23.7202C90.4373 23.7202 89.5116 23.4905 88.7351 23.0312C87.9633 22.5672 87.3667 21.9162 86.9453 21.0781C86.5286 20.2353 86.3203 19.2481 86.3203 18.1165C86.3203 16.9991 86.5286 16.0142 86.9453 15.1619C87.3667 14.3097 87.9538 13.6444 88.7067 13.1662C89.4643 12.688 90.3497 12.4489 91.3629 12.4489C91.9785 12.4489 92.575 12.5507 93.1527 12.7543C93.7304 12.9579 94.2488 13.2775 94.7081 13.7131C95.1674 14.1487 95.5296 14.7145 95.7947 15.4105C96.0599 16.1018 96.1925 16.9422 96.1925 17.9318V18.6847H87.5206V17.0938H94.1115C94.1115 16.535 93.9979 16.0402 93.7706 15.6094C93.5433 15.1738 93.2237 14.8305 92.8118 14.5795C92.4046 14.3286 91.9264 14.2031 91.3771 14.2031C90.7805 14.2031 90.2597 14.3499 89.8146 14.6435C89.3743 14.9323 89.0334 15.3111 88.7919 15.7798C88.5552 16.2438 88.4368 16.7481 88.4368 17.2926V18.5355C88.4368 19.2647 88.5646 19.8849 88.8203 20.3963C89.0807 20.9077 89.4429 21.2983 89.907 21.5682C90.371 21.8333 90.9131 21.9659 91.5334 21.9659C91.9358 21.9659 92.3028 21.9091 92.6342 21.7955C92.9657 21.6771 93.2521 21.5019 93.4936 21.2699C93.7351 21.0379 93.9197 20.7514 94.0476 20.4105L96.0575 20.7727C95.8965 21.3646 95.6077 21.883 95.1911 22.3281C94.7791 22.7685 94.2607 23.1117 93.6357 23.358C93.0154 23.5994 92.3075 23.7202 91.5121 23.7202ZM98.5487 23.5V12.5909H100.601V14.3239H100.715C100.914 13.7367 101.264 13.2751 101.766 12.9389C102.273 12.598 102.846 12.4276 103.485 12.4276C103.617 12.4276 103.774 12.4323 103.953 12.4418C104.138 12.4512 104.283 12.4631 104.387 12.4773V14.5085C104.301 14.4848 104.15 14.4588 103.932 14.4304C103.714 14.3973 103.497 14.3807 103.279 14.3807C102.777 14.3807 102.329 14.4872 101.936 14.7003C101.548 14.9086 101.24 15.1998 101.013 15.5739C100.786 15.9432 100.672 16.3646 100.672 16.8381V23.5H98.5487ZM114.399 15.2543L112.474 15.5952C112.394 15.349 112.266 15.1146 112.091 14.892C111.92 14.6695 111.688 14.4872 111.395 14.3452C111.101 14.2031 110.734 14.1321 110.294 14.1321C109.693 14.1321 109.191 14.267 108.788 14.5369C108.386 14.8021 108.185 15.1454 108.185 15.5668C108.185 15.9313 108.32 16.2249 108.589 16.4474C108.859 16.67 109.295 16.8523 109.896 16.9943L111.629 17.392C112.633 17.6241 113.381 17.9815 113.874 18.4645C114.366 18.9474 114.612 19.5748 114.612 20.3466C114.612 21 114.423 21.5824 114.044 22.0938C113.67 22.6004 113.147 22.9981 112.474 23.2869C111.807 23.5758 111.033 23.7202 110.152 23.7202C108.93 23.7202 107.934 23.4598 107.162 22.9389C106.39 22.4134 105.917 21.6676 105.741 20.7017L107.794 20.3892C107.922 20.9242 108.185 21.3291 108.582 21.6037C108.98 21.8736 109.499 22.0085 110.138 22.0085C110.834 22.0085 111.39 21.8641 111.807 21.5753C112.223 21.2817 112.432 20.9242 112.432 20.5028C112.432 20.1619 112.304 19.8755 112.048 19.6435C111.797 19.4115 111.411 19.2363 110.891 19.1179L109.044 18.7131C108.026 18.4811 107.273 18.1117 106.786 17.6051C106.303 17.0985 106.061 16.4569 106.061 15.6804C106.061 15.0365 106.241 14.473 106.601 13.9901C106.961 13.5071 107.458 13.1307 108.092 12.8608C108.727 12.5862 109.454 12.4489 110.273 12.4489C111.452 12.4489 112.38 12.7045 113.057 13.2159C113.734 13.7225 114.181 14.402 114.399 15.2543ZM122.437 8.95455V23.5H120.235V11.1562H120.15L116.67 13.429V11.3267L120.299 8.95455H122.437ZM131.436 23.7415C130.314 23.7367 129.355 23.4408 128.559 22.8537C127.764 22.2666 127.155 21.4119 126.734 20.2898C126.313 19.1676 126.102 17.8158 126.102 16.2344C126.102 14.6577 126.313 13.3106 126.734 12.1932C127.16 11.0758 127.771 10.2235 128.566 9.63636C129.367 9.04924 130.323 8.75568 131.436 8.75568C132.548 8.75568 133.502 9.05161 134.298 9.64347C135.093 10.2306 135.702 11.0829 136.123 12.2003C136.549 13.313 136.762 14.6577 136.762 16.2344C136.762 17.8205 136.552 19.1747 136.13 20.2969C135.709 21.4143 135.1 22.2689 134.305 22.8608C133.51 23.4479 132.553 23.7415 131.436 23.7415ZM131.436 21.8452C132.421 21.8452 133.19 21.3646 133.744 20.4034C134.303 19.4422 134.582 18.0526 134.582 16.2344C134.582 15.027 134.454 14.0066 134.199 13.1733C133.948 12.3352 133.585 11.7008 133.112 11.2699C132.643 10.8343 132.084 10.6165 131.436 10.6165C130.456 10.6165 129.686 11.0994 129.127 12.0653C128.569 13.0312 128.287 14.4209 128.282 16.2344C128.282 17.4465 128.408 18.4716 128.659 19.3097C128.914 20.143 129.277 20.7751 129.745 21.206C130.214 21.6321 130.778 21.8452 131.436 21.8452ZM144.346 23.7415C143.224 23.7367 142.265 23.4408 141.469 22.8537C140.674 22.2666 140.066 21.4119 139.644 20.2898C139.223 19.1676 139.012 17.8158 139.012 16.2344C139.012 14.6577 139.223 13.3106 139.644 12.1932C140.07 11.0758 140.681 10.2235 141.477 9.63636C142.277 9.04924 143.233 8.75568 144.346 8.75568C145.459 8.75568 146.413 9.05161 147.208 9.64347C148.004 10.2306 148.612 11.0829 149.033 12.2003C149.46 13.313 149.673 14.6577 149.673 16.2344C149.673 17.8205 149.462 19.1747 149.04 20.2969C148.619 21.4143 148.011 22.2689 147.215 22.8608C146.42 23.4479 145.463 23.7415 144.346 23.7415ZM144.346 21.8452C145.331 21.8452 146.1 21.3646 146.654 20.4034C147.213 19.4422 147.492 18.0526 147.492 16.2344C147.492 15.027 147.364 14.0066 147.109 13.1733C146.858 12.3352 146.496 11.7008 146.022 11.2699C145.553 10.8343 144.995 10.6165 144.346 10.6165C143.366 10.6165 142.596 11.0994 142.038 12.0653C141.479 13.0312 141.197 14.4209 141.192 16.2344C141.192 17.4465 141.318 18.4716 141.569 19.3097C141.825 20.143 142.187 20.7751 142.656 21.206C143.124 21.6321 143.688 21.8452 144.346 21.8452ZM159.784 20.7727V20.0057C159.784 19.4564 159.898 18.9545 160.125 18.5C160.357 18.0407 160.694 17.6738 161.134 17.3991C161.579 17.1198 162.116 16.9801 162.746 16.9801C163.39 16.9801 163.93 17.1174 164.365 17.392C164.801 17.6667 165.13 18.0336 165.353 18.4929C165.58 18.9522 165.694 19.4564 165.694 20.0057V20.7727C165.694 21.322 165.58 21.8262 165.353 22.2855C165.125 22.7401 164.792 23.107 164.351 23.3864C163.916 23.661 163.381 23.7983 162.746 23.7983C162.107 23.7983 161.567 23.661 161.127 23.3864C160.686 23.107 160.353 22.7401 160.125 22.2855C159.898 21.8262 159.784 21.322 159.784 20.7727ZM161.439 20.0057V20.7727C161.439 21.1799 161.536 21.5492 161.73 21.8807C161.925 22.2121 162.263 22.3778 162.746 22.3778C163.224 22.3778 163.558 22.2121 163.748 21.8807C163.937 21.5492 164.032 21.1799 164.032 20.7727V20.0057C164.032 19.5985 163.939 19.2292 163.755 18.8977C163.575 18.5663 163.239 18.4006 162.746 18.4006C162.273 18.4006 161.936 18.5663 161.738 18.8977C161.539 19.2292 161.439 19.5985 161.439 20.0057ZM152.469 12.4489V11.6818C152.469 11.1326 152.583 10.6283 152.81 10.169C153.042 9.70975 153.378 9.3428 153.819 9.06818C154.264 8.79356 154.801 8.65625 155.431 8.65625C156.075 8.65625 156.614 8.79356 157.05 9.06818C157.486 9.3428 157.815 9.70975 158.037 10.169C158.26 10.6283 158.371 11.1326 158.371 11.6818V12.4489C158.371 12.9981 158.257 13.5024 158.03 13.9616C157.808 14.4162 157.476 14.7831 157.036 15.0625C156.6 15.3371 156.065 15.4744 155.431 15.4744C154.787 15.4744 154.245 15.3371 153.804 15.0625C153.369 14.7831 153.037 14.4162 152.81 13.9616C152.583 13.5024 152.469 12.9981 152.469 12.4489ZM154.131 11.6818V12.4489C154.131 12.8561 154.226 13.2254 154.415 13.5568C154.609 13.8883 154.948 14.054 155.431 14.054C155.904 14.054 156.236 13.8883 156.425 13.5568C156.619 13.2254 156.716 12.8561 156.716 12.4489V11.6818C156.716 11.2746 156.624 10.9053 156.439 10.5739C156.255 10.2424 155.918 10.0767 155.431 10.0767C154.957 10.0767 154.621 10.2424 154.422 10.5739C154.228 10.9053 154.131 11.2746 154.131 11.6818ZM153.144 23.5L163.144 8.95455H164.841L154.841 23.5H153.144Z" fill="#AD7C00"/>
</svg>
