<svg width="32" height="32" viewBox="0 0 32 32" fill="none" xmlns="http://www.w3.org/2000/svg">
<path d="M18.9389 3.2558C22.0614 2.33751 25.3273 2.46456 27.4594 4.59663C28.9186 6.05577 29.4395 8.07162 29.3295 10.1591C29.2316 12.0188 28.6352 14.0315 27.6508 16.0273C28.1344 17.0075 28.5198 17.9841 28.8003 18.9374C29.7187 22.0601 29.5916 25.3267 27.4594 27.4589C25.3273 29.591 22.0614 29.7181 18.9389 28.7997C17.9855 28.5193 17.0091 28.1339 16.0288 27.6503C15.0485 28.1339 14.072 28.5193 13.1186 28.7997C9.996 29.7182 6.72932 29.5911 4.59713 27.4589C3.13913 26.0009 2.61813 23.9871 2.72701 21.9013C2.82422 20.0403 3.42057 18.0255 4.40572 16.0283C3.92214 15.048 3.53675 14.0715 3.25631 13.1181C2.33789 9.99551 2.46495 6.72882 4.59713 4.59663C6.72932 2.46443 9.996 2.33739 13.1186 3.2558C14.072 3.53625 15.0485 3.92165 16.0288 4.40522C17.0091 3.92166 17.9855 3.53622 18.9389 3.2558ZM6.31685 19.2119C5.96422 20.237 5.768 21.198 5.7231 22.0576C5.64388 23.5747 6.03453 24.6541 6.71822 25.3378C7.71022 26.3298 9.59363 26.7096 12.2719 25.9218C12.4607 25.8663 12.6516 25.8055 12.8442 25.7392C11.6298 24.8773 10.4401 23.8742 9.31099 22.7451C8.18188 21.6159 7.17875 20.4262 6.31685 19.2119ZM12.2719 6.13373C9.59363 5.346 7.71022 5.72572 6.71822 6.71772C5.72624 7.70973 5.34651 9.59315 6.13423 12.2714C6.90377 14.8877 8.71085 17.9027 11.4321 20.624C12.9143 22.1062 14.4842 23.3174 16.0288 24.2372C17.5733 23.3174 19.1423 22.1061 20.6245 20.624C20.9989 20.2495 21.3571 19.8684 21.6977 19.4833C22.2466 18.8632 23.1945 18.8057 23.8149 19.3544C24.4351 19.9033 24.4935 20.8512 23.9448 21.4716C23.5635 21.9027 23.1632 22.3274 22.7456 22.7451C21.6164 23.8742 20.4267 24.8773 19.2124 25.7392C19.4049 25.8055 19.5959 25.8663 19.7846 25.9218C22.4629 26.7095 24.3463 26.3298 25.3383 25.3378C26.3303 24.3458 26.7101 22.4624 25.9223 19.7841C25.6455 18.8431 25.2343 17.8507 24.6948 16.8388C24.6564 16.7785 24.6225 16.7151 24.5932 16.6503C23.6388 14.9076 22.3063 13.1134 20.6245 11.4316C19.1423 9.94947 17.5733 8.73816 16.0288 7.81831C14.4842 8.73819 12.9143 9.94937 11.4321 11.4316C11.0407 11.823 10.6673 12.221 10.3129 12.624C9.76584 13.246 8.81783 13.3068 8.19576 12.7597C7.57417 12.2127 7.51344 11.2655 8.06002 10.6435C8.45682 10.1923 8.8744 9.74709 9.31099 9.31049C10.4401 8.18137 11.6298 7.17825 12.8442 6.31635C12.6516 6.25008 12.4607 6.18925 12.2719 6.13373ZM16.0004 12.9999C17.6571 13.0002 19.0004 14.3433 19.0004 15.9999C19.0004 17.6567 17.6571 18.9997 16.0004 18.9999C14.3436 18.9999 13.0004 17.6568 13.0004 15.9999C13.0005 14.3431 14.3436 12.9999 16.0004 12.9999ZM25.3383 6.71772C24.3463 5.72576 22.4629 5.34601 19.7846 6.13373C19.5959 6.18924 19.405 6.25009 19.2124 6.31635C20.4267 7.17824 21.6164 8.18138 22.7456 9.31049C23.8747 10.4396 24.8778 11.6293 25.7397 12.8437C26.0919 11.8198 26.2882 10.8597 26.3335 10.0009C26.4133 8.48227 26.0225 7.40186 25.3383 6.71772Z" fill="#AD7C00"/>
</svg>
