<svg width="747" height="93" viewBox="0 0 747 93" fill="none" xmlns="http://www.w3.org/2000/svg">
<path d="M39.7194 51.88L61.1994 48.52L76.7994 82.36C77.3594 83.4 77.9194 84.2 78.4794 84.76C79.1194 85.24 79.7994 85.56 80.5194 85.72C81.3194 85.8 82.1994 85.84 83.1594 85.84H83.7594V91H56.0394L39.7194 51.88ZM31.9194 84.64C31.9194 84.88 32.1194 85.08 32.5194 85.24C32.9194 85.32 33.4394 85.44 34.0794 85.6C34.7194 85.68 35.4394 85.76 36.2394 85.84C37.0394 85.84 37.7994 85.84 38.5194 85.84H39.7194V91H0.719375V85.84H1.79938C3.79938 85.84 5.43938 85.6 6.71938 85.12C8.07938 84.56 8.75938 83.44 8.75938 81.76V15.04C8.75938 13.36 8.07938 12.28 6.71938 11.8C5.43938 11.24 3.79938 10.96 1.79938 10.96H0.719375V5.8H44.1594C51.1994 5.8 57.1594 6.79999 62.0394 8.79999C66.9194 10.72 70.6394 13.44 73.1994 16.96C75.7594 20.48 77.0394 24.6 77.0394 29.32C77.0394 34.12 75.7594 38.28 73.1994 41.8C70.7194 45.32 67.0394 48.12 62.1594 50.2C57.3594 52.2 51.5194 53.32 44.6394 53.56C44.3194 53.64 43.9594 53.68 43.5594 53.68C43.1594 53.68 42.7594 53.72 42.3594 53.8C41.9594 53.8 41.5594 53.8 41.1594 53.8H28.4394V47.8H39.5994C42.7994 47.8 45.3994 47.16 47.3994 45.88C49.4794 44.52 50.9594 42.48 51.8394 39.76C52.7994 36.96 53.2794 33.44 53.2794 29.2C53.2794 25.28 52.7994 22.04 51.8394 19.48C50.8794 16.92 49.3994 15.04 47.3994 13.84C45.4794 12.56 43.0794 11.92 40.1994 11.92H31.9194V84.64ZM108.818 60.16C108.818 64.56 109.138 68.36 109.778 71.56C110.498 74.76 111.578 77.4 113.018 79.48C114.458 81.48 116.218 83 118.298 84.04C120.458 85.08 122.938 85.6 125.738 85.6C128.698 85.6 131.338 85.04 133.658 83.92C135.978 82.8 138.018 81.32 139.778 79.48C141.538 77.64 143.018 75.6 144.218 73.36L149.138 76.84C147.538 79.88 145.498 82.56 143.018 84.88C140.538 87.2 137.538 89 134.018 90.28C130.578 91.56 126.538 92.2 121.898 92.2C114.938 92.2 108.818 90.92 103.538 88.36C98.2578 85.72 94.1378 82 91.1778 77.2C88.2978 72.32 86.8578 66.6 86.8578 60.04C86.8578 53.48 88.2578 47.76 91.0578 42.88C93.9378 38 97.8578 34.2 102.818 31.48C107.858 28.76 113.498 27.4 119.738 27.4C124.698 27.4 129.058 28.12 132.818 29.56C136.578 31 139.738 33.12 142.298 35.92C144.938 38.64 146.898 42.04 148.178 46.12C149.538 50.2 150.258 54.88 150.338 60.16H99.9378L99.8178 54.52H132.818L130.058 55.96C129.978 51.64 129.738 48.04 129.338 45.16C128.938 42.2 128.338 39.88 127.538 38.2C126.738 36.52 125.738 35.32 124.538 34.6C123.338 33.8 121.898 33.4 120.218 33.4C118.458 33.4 116.858 33.88 115.418 34.84C114.058 35.8 112.858 37.32 111.818 39.4C110.858 41.48 110.098 44.24 109.538 47.68C109.058 51.04 108.818 55.2 108.818 60.16ZM156.213 91V86.08H156.333C157.533 86.08 158.573 86 159.453 85.84C160.413 85.68 161.173 85.36 161.733 84.88C162.293 84.32 162.573 83.6 162.573 82.72V37.84C162.573 36.96 162.373 36.28 161.973 35.8C161.653 35.32 161.093 34.96 160.293 34.72C159.573 34.4 158.613 34.12 157.413 33.88L156.213 33.64V28.6H183.093V41.68L184.413 42.04V85C184.413 85.24 184.693 85.44 185.253 85.6C185.813 85.76 186.493 85.88 187.293 85.96C188.173 86.04 189.013 86.08 189.813 86.08H190.053V91H156.213ZM231.573 91H197.733V86.08H197.853C198.573 86.08 199.373 86.04 200.253 85.96C201.133 85.88 201.853 85.76 202.413 85.6C203.053 85.44 203.373 85.24 203.373 85V46.48C203.373 44.24 203.133 42.44 202.653 41.08C202.173 39.72 201.453 38.72 200.493 38.08C199.533 37.36 198.253 37 196.653 37C194.733 37 192.933 37.52 191.253 38.56C189.653 39.52 188.133 40.92 186.693 42.76C185.333 44.6 184.053 46.76 182.853 49.24L181.413 43C183.093 39.72 185.053 36.96 187.293 34.72C189.613 32.4 192.213 30.6 195.093 29.32C198.053 28.04 201.373 27.4 205.053 27.4C209.133 27.4 212.693 28.2 215.733 29.8C218.773 31.4 221.093 33.72 222.693 36.76C224.373 39.8 225.213 43.6 225.213 48.16V82.72C225.213 83.6 225.493 84.32 226.053 84.88C226.613 85.36 227.333 85.68 228.213 85.84C229.093 86 230.133 86.08 231.333 86.08H231.573V91ZM306.698 59.92C306.698 66.24 305.258 71.84 302.378 76.72C299.578 81.6 295.538 85.4 290.258 88.12C285.058 90.84 278.898 92.2 271.778 92.2C264.738 92.2 258.578 90.84 253.298 88.12C248.018 85.4 243.938 81.64 241.058 76.84C238.258 71.96 236.858 66.32 236.858 59.92C236.858 55.12 237.658 50.72 239.258 46.72C240.858 42.72 243.178 39.28 246.218 36.4C249.338 33.52 253.018 31.32 257.258 29.8C261.578 28.2 266.418 27.4 271.778 27.4C277.138 27.4 281.938 28.2 286.178 29.8C290.498 31.32 294.178 33.52 297.218 36.4C300.338 39.28 302.698 42.72 304.298 46.72C305.898 50.72 306.698 55.12 306.698 59.92ZM259.298 59.92C259.298 66 259.738 71 260.618 74.92C261.578 78.84 262.978 81.72 264.818 83.56C266.738 85.4 269.058 86.32 271.778 86.32C274.578 86.32 276.858 85.4 278.618 83.56C280.458 81.72 281.858 78.84 282.818 74.92C283.778 71 284.258 65.96 284.258 59.8C284.258 53.64 283.778 48.64 282.818 44.8C281.858 40.88 280.458 38 278.618 36.16C276.858 34.32 274.578 33.4 271.778 33.4C269.058 33.4 266.738 34.32 264.818 36.16C262.978 38 261.578 40.88 260.618 44.8C259.738 48.64 259.298 53.68 259.298 59.92ZM363.123 35.68C363.123 35.28 362.763 34.92 362.043 34.6C361.323 34.28 360.443 34.04 359.403 33.88C358.363 33.64 357.243 33.52 356.043 33.52H355.803V28.6H374.883V33.52H374.763C373.883 33.52 373.043 33.68 372.243 34C371.523 34.32 370.843 34.88 370.203 35.68C369.643 36.4 369.083 37.44 368.523 38.8L349.803 91H333.363L314.043 37.6C313.723 36.48 313.283 35.64 312.723 35.08C312.243 34.52 311.643 34.12 310.923 33.88C310.203 33.64 309.363 33.52 308.403 33.52H308.163V28.6H342.843V33.52H342.603C341.563 33.52 340.443 33.56 339.243 33.64C338.123 33.72 337.163 33.84 336.363 34C335.643 34.08 335.283 34.28 335.283 34.6L351.243 80.68L346.203 83.44L363.123 35.68ZM417.337 53.56L417.217 58.72C414.417 59.04 411.897 59.52 409.657 60.16C407.497 60.72 405.577 61.44 403.897 62.32C402.297 63.12 400.977 64.12 399.937 65.32C398.897 66.44 398.137 67.76 397.657 69.28C397.177 70.72 396.937 72.36 396.937 74.2C396.937 76.44 397.217 78.28 397.777 79.72C398.417 81.16 399.297 82.24 400.417 82.96C401.617 83.68 402.977 84.04 404.497 84.04C406.337 84.04 407.977 83.56 409.417 82.6C410.857 81.64 412.177 80.32 413.377 78.64C414.577 76.88 415.577 74.84 416.377 72.52L418.057 76.12C417.097 79.4 415.657 82.24 413.737 84.64C411.897 87.04 409.537 88.92 406.657 90.28C403.777 91.56 400.377 92.2 396.457 92.2C392.377 92.2 388.857 91.56 385.897 90.28C382.937 89 380.657 87.16 379.057 84.76C377.457 82.28 376.657 79.24 376.657 75.64C376.657 72.28 377.537 69.4 379.297 67C381.057 64.52 383.617 62.44 386.977 60.76C390.417 59.08 394.657 57.68 399.697 56.56C404.817 55.36 410.697 54.36 417.337 53.56ZM415.777 91V79.6L414.457 79.72V43.36C414.457 41.04 414.137 39.16 413.497 37.72C412.857 36.2 411.857 35.12 410.497 34.48C409.137 33.76 407.417 33.4 405.337 33.4C402.457 33.4 400.017 33.96 398.017 35.08C396.017 36.2 394.497 37.6 393.457 39.28C393.377 38.4 393.377 37.64 393.457 37C393.617 36.28 393.857 35.64 394.177 35.08C394.577 34.52 395.017 34.04 395.497 33.64C396.057 33.24 396.697 32.92 397.417 32.68V48.04H381.217V35.2C382.337 34.32 384.057 33.28 386.377 32.08C388.697 30.88 391.657 29.8 395.257 28.84C398.857 27.88 403.057 27.4 407.857 27.4C412.017 27.4 415.817 27.84 419.257 28.72C422.697 29.6 425.657 30.92 428.137 32.68C430.617 34.36 432.497 36.56 433.777 39.28C435.137 41.92 435.817 45.08 435.817 48.76V82.36C435.817 83.24 436.017 83.92 436.417 84.4C436.897 84.88 437.537 85.24 438.337 85.48C439.137 85.64 440.137 85.76 441.337 85.84L442.057 85.96V91H415.777ZM443.626 34.36V29.2H443.986C445.826 29.2 447.426 29.04 448.786 28.72C450.146 28.32 451.226 27.68 452.026 26.8C452.826 25.84 453.306 24.56 453.466 22.96L458.986 28.6H487.666V34.36H443.626ZM473.266 73.96C473.266 76.92 473.586 79.24 474.226 80.92C474.866 82.52 475.786 83.68 476.986 84.4C478.186 85.04 479.666 85.36 481.426 85.36C483.026 85.36 484.466 85.16 485.746 84.76C487.026 84.36 487.906 84.08 488.386 83.92V89.92C487.746 90.32 486.786 90.68 485.506 91C484.306 91.32 482.866 91.6 481.186 91.84C479.586 92.08 477.746 92.2 475.666 92.2C470.946 92.2 466.746 91.56 463.066 90.28C459.386 88.92 456.506 86.72 454.426 83.68C452.346 80.56 451.306 76.44 451.306 71.32V30.16L452.866 29.08L454.426 12.28H473.266V73.96ZM510.988 19.84C507.388 19.84 504.508 18.96 502.348 17.2C500.188 15.44 499.107 13 499.107 9.87999C499.107 6.75999 500.188 4.35999 502.348 2.67999C504.508 0.919996 507.388 0.0399981 510.988 0.0399981C514.668 0.0399981 517.548 0.919996 519.628 2.67999C521.788 4.35999 522.867 6.75999 522.867 9.87999C522.867 13 521.788 15.44 519.628 17.2C517.548 18.96 514.668 19.84 510.988 19.84ZM522.148 28.6V82.72C522.148 84.08 522.748 85 523.948 85.48C525.148 85.88 526.588 86.08 528.268 86.08H528.388V91H493.948V86.08H494.188C495.948 86.08 497.388 85.88 498.508 85.48C499.708 85 500.308 84.08 500.308 82.72V37.84C500.308 36.56 499.868 35.68 498.988 35.2C498.188 34.72 496.908 34.28 495.147 33.88L493.948 33.64V28.6H522.148ZM603.885 59.92C603.885 66.24 602.445 71.84 599.565 76.72C596.765 81.6 592.725 85.4 587.445 88.12C582.245 90.84 576.085 92.2 568.965 92.2C561.925 92.2 555.765 90.84 550.485 88.12C545.205 85.4 541.125 81.64 538.245 76.84C535.445 71.96 534.045 66.32 534.045 59.92C534.045 55.12 534.845 50.72 536.445 46.72C538.045 42.72 540.365 39.28 543.405 36.4C546.525 33.52 550.205 31.32 554.445 29.8C558.765 28.2 563.605 27.4 568.965 27.4C574.325 27.4 579.125 28.2 583.365 29.8C587.685 31.32 591.365 33.52 594.405 36.4C597.525 39.28 599.885 42.72 601.485 46.72C603.085 50.72 603.885 55.12 603.885 59.92ZM556.485 59.92C556.485 66 556.925 71 557.805 74.92C558.765 78.84 560.165 81.72 562.005 83.56C563.925 85.4 566.245 86.32 568.965 86.32C571.765 86.32 574.045 85.4 575.805 83.56C577.645 81.72 579.045 78.84 580.005 74.92C580.965 71 581.445 65.96 581.445 59.8C581.445 53.64 580.965 48.64 580.005 44.8C579.045 40.88 577.645 38 575.805 36.16C574.045 34.32 571.765 33.4 568.965 33.4C566.245 33.4 563.925 34.32 562.005 36.16C560.165 38 558.765 40.88 557.805 44.8C556.925 48.64 556.485 53.68 556.485 59.92ZM610.198 91V86.08H610.318C611.518 86.08 612.558 86 613.438 85.84C614.398 85.68 615.158 85.36 615.718 84.88C616.278 84.32 616.558 83.6 616.558 82.72V37.84C616.558 36.96 616.358 36.28 615.958 35.8C615.638 35.32 615.078 34.96 614.278 34.72C613.558 34.4 612.598 34.12 611.397 33.88L610.198 33.64V28.6H637.078V41.68L638.398 42.04V85C638.398 85.24 638.678 85.44 639.238 85.6C639.798 85.76 640.478 85.88 641.278 85.96C642.158 86.04 642.998 86.08 643.798 86.08H644.038V91H610.198ZM685.558 91H651.718V86.08H651.838C652.558 86.08 653.358 86.04 654.238 85.96C655.118 85.88 655.838 85.76 656.398 85.6C657.038 85.44 657.358 85.24 657.358 85V46.48C657.358 44.24 657.118 42.44 656.638 41.08C656.158 39.72 655.438 38.72 654.478 38.08C653.518 37.36 652.238 37 650.638 37C648.718 37 646.918 37.52 645.238 38.56C643.638 39.52 642.118 40.92 640.678 42.76C639.318 44.6 638.038 46.76 636.838 49.24L635.398 43C637.078 39.72 639.038 36.96 641.278 34.72C643.598 32.4 646.198 30.6 649.078 29.32C652.038 28.04 655.358 27.4 659.038 27.4C663.118 27.4 666.678 28.2 669.718 29.8C672.758 31.4 675.078 33.72 676.678 36.76C678.358 39.8 679.198 43.6 679.198 48.16V82.72C679.198 83.6 679.478 84.32 680.038 84.88C680.598 85.36 681.318 85.68 682.198 85.84C683.078 86 684.118 86.08 685.318 86.08H685.558V91ZM728.042 77.56C728.042 76.04 727.682 74.76 726.962 73.72C726.242 72.68 725.202 71.8 723.842 71.08C722.482 70.36 720.842 69.72 718.922 69.16C717.082 68.52 715.002 67.88 712.682 67.24C710.282 66.52 707.842 65.72 705.362 64.84C702.962 63.96 700.722 62.8 698.642 61.36C696.642 59.84 695.002 57.92 693.722 55.6C692.522 53.28 691.922 50.36 691.922 46.84C691.922 42.68 693.042 39.16 695.282 36.28C697.522 33.4 700.642 31.2 704.642 29.68C708.722 28.16 713.442 27.4 718.802 27.4C723.042 27.4 726.722 27.76 729.842 28.48C733.042 29.12 735.642 29.88 737.642 30.76C739.642 31.64 741.042 32.4 741.842 33.04V44.56H727.442V32.08C728.162 32.16 728.762 32.4 729.242 32.8C729.722 33.12 730.082 33.56 730.322 34.12C730.642 34.6 730.802 35.12 730.802 35.68C730.802 36.24 730.722 36.72 730.562 37.12C729.762 36.32 728.802 35.64 727.682 35.08C726.642 34.44 725.402 33.96 723.962 33.64C722.602 33.32 721.002 33.16 719.162 33.16C715.562 33.16 712.882 33.92 711.122 35.44C709.362 36.88 708.482 38.76 708.482 41.08C708.482 42.68 708.882 44 709.682 45.04C710.482 46.08 711.602 46.96 713.042 47.68C714.482 48.4 716.202 49.08 718.202 49.72C720.202 50.28 722.362 50.88 724.682 51.52C727.242 52.24 729.762 53.08 732.242 54.04C734.722 54.92 737.002 56.08 739.082 57.52C741.242 58.96 742.962 60.76 744.242 62.92C745.522 65.08 746.162 67.76 746.162 70.96C746.162 75.44 745.002 79.28 742.682 82.48C740.442 85.6 737.122 88 732.722 89.68C728.322 91.36 722.922 92.2 716.522 92.2C712.122 92.2 708.162 91.84 704.642 91.12C701.202 90.4 698.242 89.52 695.762 88.48C693.362 87.44 691.482 86.48 690.122 85.6V72.76H705.242V87.64C704.522 87.08 703.882 86.56 703.322 86.08C702.842 85.52 702.482 85 702.242 84.52C702.002 83.96 701.842 83.44 701.762 82.96C701.762 82.48 701.882 82 702.122 81.52C703.162 82.64 704.402 83.56 705.842 84.28C707.282 85 708.842 85.56 710.522 85.96C712.282 86.28 714.122 86.44 716.042 86.44C718.602 86.44 720.762 86.12 722.522 85.48C724.362 84.76 725.722 83.72 726.602 82.36C727.562 81 728.042 79.4 728.042 77.56Z" fill="#1E1B28"/>
</svg>
