<svg width="296" height="118" viewBox="0 0 296 118" fill="none" xmlns="http://www.w3.org/2000/svg">
<path d="M33.578 84.84C36.858 84.84 39.658 84.4 41.978 83.52C44.298 82.64 46.098 81.24 47.378 79.32C48.658 77.4 49.298 75 49.298 72.12C49.298 69.8 48.738 67.88 47.618 66.36C46.498 64.76 44.898 63.4 42.818 62.28C40.818 61.08 38.378 60 35.498 59.04C32.618 58 29.378 56.96 25.778 55.92C22.738 54.96 19.738 53.8 16.778 52.44C13.898 51.08 11.258 49.4 8.85797 47.4C6.53797 45.32 4.69797 42.76 3.33797 39.72C1.97797 36.68 1.29797 33 1.29797 28.68C1.29797 23.4 2.61797 18.92 5.25797 15.24C7.89797 11.48 11.418 8.6 15.818 6.59999C20.218 4.6 25.018 3.6 30.218 3.6C35.098 3.6 39.258 4.24 42.698 5.51999C46.138 6.8 49.058 8.72 51.458 11.28C53.858 13.76 55.778 16.84 57.218 20.52L52.418 18.6L54.218 4.8H60.338V27H54.218C53.098 23.4 51.498 20.36 49.418 17.88C47.338 15.32 44.858 13.36 41.978 12C39.178 10.64 36.058 9.95999 32.618 9.95999C29.658 9.95999 27.138 10.4 25.058 11.28C22.978 12.16 21.418 13.44 20.378 15.12C19.338 16.72 18.818 18.68 18.818 21C18.818 23.32 19.378 25.28 20.498 26.88C21.618 28.4 23.138 29.72 25.058 30.84C27.058 31.88 29.338 32.8 31.898 33.6C34.538 34.4 37.418 35.2 40.538 36C43.978 36.96 47.258 38.12 50.378 39.48C53.578 40.76 56.418 42.4 58.898 44.4C61.458 46.4 63.458 48.92 64.898 51.96C66.418 55 67.178 58.68 67.178 63C67.178 68.68 65.858 73.64 63.218 77.88C60.658 82.12 56.978 85.4 52.178 87.72C47.458 90.04 41.858 91.2 35.378 91.2C30.578 91.2 26.098 90.52 21.938 89.16C17.858 87.8 14.258 85.64 11.138 82.68C8.09797 79.72 5.69797 75.96 3.93797 71.4L8.37797 74.88L6.57797 90H0.217969V63.96H6.93797C8.53797 68.6 10.618 72.48 13.178 75.6C15.818 78.72 18.858 81.04 22.298 82.56C25.738 84.08 29.498 84.84 33.578 84.84ZM70.7864 33.36V28.2H71.1464C72.9864 28.2 74.5864 28.04 75.9464 27.72C77.3064 27.32 78.3864 26.68 79.1864 25.8C79.9864 24.84 80.4664 23.56 80.6264 21.96L86.1464 27.6H114.826V33.36H70.7864ZM100.426 72.96C100.426 75.92 100.746 78.24 101.386 79.92C102.026 81.52 102.946 82.68 104.146 83.4C105.346 84.04 106.826 84.36 108.586 84.36C110.186 84.36 111.626 84.16 112.906 83.76C114.186 83.36 115.066 83.08 115.546 82.92V88.92C114.906 89.32 113.946 89.68 112.666 90C111.466 90.32 110.026 90.6 108.346 90.84C106.746 91.08 104.906 91.2 102.826 91.2C98.1064 91.2 93.9064 90.56 90.2264 89.28C86.5464 87.92 83.6664 85.72 81.5864 82.68C79.5064 79.56 78.4664 75.44 78.4664 70.32V29.16L80.0264 28.08L81.5864 11.28H100.426V72.96ZM164.059 76.08L157.819 87.96L152.659 97.08L126.019 36.24C125.619 35.28 125.139 34.56 124.579 34.08C124.099 33.52 123.459 33.12 122.659 32.88C121.939 32.64 121.099 32.52 120.139 32.52H119.899V27.6H154.579V32.52H154.459C153.339 32.52 152.219 32.56 151.099 32.64C149.979 32.72 149.019 32.84 148.219 33C147.499 33.16 147.139 33.4 147.139 33.72L164.059 76.08ZM160.099 90.48C158.099 95.36 156.059 99.52 153.979 102.96C151.979 106.48 149.939 109.32 147.859 111.48C145.779 113.72 143.579 115.32 141.259 116.28C138.939 117.32 136.419 117.84 133.699 117.84C131.619 117.84 129.779 117.6 128.179 117.12C126.659 116.72 125.459 116.24 124.579 115.68V100.68C124.899 100.76 125.619 101.04 126.739 101.52C127.859 102 129.219 102.44 130.819 102.84C132.499 103.32 134.299 103.56 136.219 103.56C138.299 103.56 140.179 103.36 141.859 102.96C143.539 102.56 145.099 101.76 146.539 100.56C148.059 99.44 149.459 97.84 150.739 95.76C152.099 93.76 153.419 91.16 154.699 87.96L157.459 81.36L176.419 35.04C176.419 34.56 176.099 34.16 175.459 33.84C174.819 33.44 173.979 33.12 172.939 32.88C171.899 32.64 170.779 32.52 169.579 32.52H169.219V27.6H188.299V32.52C187.339 32.52 186.459 32.68 185.659 33C184.939 33.32 184.259 33.88 183.619 34.68C183.059 35.4 182.459 36.52 181.819 38.04L160.099 90.48ZM220.206 0.359995V81.72C220.206 83.08 220.766 84 221.886 84.48C223.086 84.88 224.566 85.08 226.326 85.08H226.446V90H192.006V85.08H192.126C193.886 85.08 195.326 84.88 196.446 84.48C197.646 84 198.246 83.08 198.246 81.72V9.48C198.246 8.6 198.046 7.96 197.646 7.56C197.326 7.08 196.806 6.68 196.086 6.36C195.366 6.04 194.366 5.8 193.086 5.64L192.006 5.39999V0.359995H220.206ZM253.947 59.16C253.947 63.56 254.267 67.36 254.907 70.56C255.627 73.76 256.707 76.4 258.147 78.48C259.587 80.48 261.347 82 263.427 83.04C265.587 84.08 268.067 84.6 270.867 84.6C273.827 84.6 276.467 84.04 278.787 82.92C281.107 81.8 283.147 80.32 284.907 78.48C286.667 76.64 288.147 74.6 289.347 72.36L294.267 75.84C292.667 78.88 290.627 81.56 288.147 83.88C285.667 86.2 282.667 88 279.147 89.28C275.707 90.56 271.667 91.2 267.027 91.2C260.067 91.2 253.947 89.92 248.667 87.36C243.387 84.72 239.267 81 236.307 76.2C233.427 71.32 231.987 65.6 231.987 59.04C231.987 52.48 233.387 46.76 236.187 41.88C239.067 37 242.987 33.2 247.947 30.48C252.987 27.76 258.627 26.4 264.867 26.4C269.827 26.4 274.187 27.12 277.947 28.56C281.707 30 284.867 32.12 287.427 34.92C290.067 37.64 292.027 41.04 293.307 45.12C294.667 49.2 295.387 53.88 295.467 59.16H245.067L244.947 53.52H277.947L275.187 54.96C275.107 50.64 274.867 47.04 274.467 44.16C274.067 41.2 273.467 38.88 272.667 37.2C271.867 35.52 270.867 34.32 269.667 33.6C268.467 32.8 267.027 32.4 265.347 32.4C263.587 32.4 261.987 32.88 260.547 33.84C259.187 34.8 257.987 36.32 256.947 38.4C255.987 40.48 255.227 43.24 254.667 46.68C254.187 50.04 253.947 54.2 253.947 59.16Z" fill="#1E1B28"/>
</svg>
