<svg width="24" height="24" viewBox="0 0 24 24" fill="none" xmlns="http://www.w3.org/2000/svg">
<path d="M21.4356 3.25947C21.2806 3.12557 21.0919 3.03665 20.89 3.00235C20.6881 2.96805 20.4806 2.98969 20.2901 3.06492L2.9879 9.86225C2.76172 9.95111 2.57039 10.1108 2.44255 10.3175C2.31471 10.5241 2.25722 10.7666 2.27869 11.0087C2.30017 11.2507 2.39945 11.4793 2.56168 11.6603C2.72391 11.8412 2.94036 11.9647 3.17866 12.0124L7.87499 12.9517V18.7485C7.87264 18.9716 7.93768 19.1901 8.06159 19.3755C8.18551 19.561 8.36252 19.7047 8.56946 19.7879C8.7081 19.8459 8.85683 19.876 9.00713 19.8764C9.154 19.8759 9.29932 19.8463 9.43465 19.7892C9.56998 19.7322 9.69264 19.6488 9.79549 19.544L12.4764 16.8631L16.432 20.344C16.6358 20.5251 16.8989 20.6252 17.1715 20.6255C17.29 20.6253 17.4078 20.6066 17.5205 20.5701C17.7064 20.5111 17.8737 20.4044 18.0055 20.2607C18.1373 20.1169 18.2291 19.9411 18.2718 19.7508L21.7981 4.36332C21.8441 4.16376 21.8347 3.95541 21.7708 3.76084C21.7069 3.56626 21.5909 3.39288 21.4356 3.25947ZM3.02576 10.9424C3.01643 10.8614 3.0347 10.7796 3.0776 10.7103C3.12051 10.6409 3.18554 10.5881 3.2622 10.5603L19.1224 4.32943L8.16302 12.2445L3.32573 11.277C3.24538 11.2631 3.17206 11.2225 3.11763 11.1618C3.0632 11.1011 3.03083 11.0238 3.02576 10.9424ZM9.26513 19.0137C9.21269 19.0661 9.14587 19.1018 9.07313 19.1163C9.00039 19.1308 8.925 19.1234 8.85648 19.095C8.78796 19.0666 8.72939 19.0185 8.68819 18.9569C8.64698 18.8952 8.62499 18.8227 8.62499 18.7485V13.4738L11.9122 16.3666L9.26513 19.0137ZM21.067 4.19578L17.5407 19.5832C17.5262 19.6465 17.4955 19.705 17.4516 19.7529C17.4077 19.8008 17.3521 19.8364 17.2903 19.8564C17.2284 19.8763 17.1625 19.8798 17.0989 19.8666C17.0353 19.8534 16.9762 19.8239 16.9274 19.781L8.85048 12.6732L21.0064 3.89398C21.0384 3.93658 21.0604 3.98579 21.0709 4.03801C21.0814 4.09023 21.0801 4.14414 21.067 4.19578Z" fill="#8F5E00"/>
</svg>
