<svg width="24" height="24" viewBox="0 0 24 24" fill="none" xmlns="http://www.w3.org/2000/svg">
<path d="M21.4356 3.25929C21.2806 3.12538 21.0919 3.03646 20.89 3.00217C20.6881 2.96787 20.4806 2.98951 20.2901 3.06474L2.98791 9.86207C2.76173 9.95092 2.5704 10.1106 2.44256 10.3173C2.31471 10.5239 2.25723 10.7665 2.2787 11.0085C2.30018 11.2506 2.39946 11.4792 2.56169 11.6601C2.72392 11.841 2.94037 11.9645 3.17866 12.0122L7.875 12.9515V18.7484C7.87265 18.9714 7.93769 19.1899 8.0616 19.3754C8.18551 19.5608 8.36253 19.7045 8.56947 19.7877C8.7081 19.8457 8.85684 19.8758 9.00714 19.8762C9.15401 19.8757 9.29933 19.8461 9.43466 19.7891C9.56999 19.732 9.69264 19.6486 9.7955 19.5438L12.4764 16.8629L16.432 20.3439C16.6359 20.5249 16.8989 20.625 17.1715 20.6253C17.29 20.6252 17.4078 20.6065 17.5205 20.5699C17.7065 20.5109 17.8737 20.4043 18.0055 20.2605C18.1373 20.1167 18.2291 19.9409 18.2718 19.7506L21.7981 4.36314C21.8441 4.16358 21.8347 3.95523 21.7708 3.76066C21.7069 3.56608 21.5909 3.3927 21.4356 3.25929ZM3.02577 10.9422C3.01644 10.8612 3.03471 10.7794 3.07761 10.7101C3.12051 10.6407 3.18555 10.5879 3.26221 10.5601L19.1224 4.32924L8.16302 12.2443L3.32574 11.2768C3.24539 11.2629 3.17207 11.2223 3.11764 11.1616C3.0632 11.1009 3.03084 11.0236 3.02577 10.9422ZM9.26513 19.0135C9.21269 19.0659 9.14588 19.1017 9.07314 19.1161C9.0004 19.1306 8.925 19.1232 8.85648 19.0948C8.78796 19.0664 8.7294 19.0184 8.6882 18.9567C8.64699 18.895 8.625 18.8225 8.625 18.7484V13.4736L11.9122 16.3664L9.26513 19.0135ZM21.067 4.1956L17.5407 19.583C17.5262 19.6464 17.4955 19.7048 17.4516 19.7527C17.4077 19.8006 17.3521 19.8362 17.2903 19.8562C17.2284 19.8761 17.1625 19.8796 17.0989 19.8664C17.0353 19.8532 16.9762 19.8237 16.9275 19.7808L8.85049 12.673L21.0064 3.8938C21.0384 3.93639 21.0604 3.98561 21.0709 4.03783C21.0814 4.09005 21.0801 4.14396 21.067 4.1956Z" fill="black" fill-opacity="0.6"/>
</svg>
