<svg width="24" height="24" viewBox="0 0 24 24" fill="none" xmlns="http://www.w3.org/2000/svg">
<g id="viber-svgrepo-com 1" clip-path="url(#clip0_12383_44)">
<g id="Group">
<g id="Group_2">
<path id="Vector" d="M14.2855 0H9.71408C4.92605 0 1.03064 3.8945 1.03064 8.68161V12.7996C1.03064 16.3646 3.22127 19.5685 6.5152 20.8733V23.543C6.5152 23.7239 6.6217 23.8876 6.78715 23.9607C6.84656 23.9872 6.90964 24 6.97225 24C7.08331 24 7.19346 23.9593 7.27893 23.8816L9.92935 21.4812H14.2855C19.0735 21.4812 22.9689 17.5867 22.9689 12.7996V8.68161C22.9689 3.8945 19.0735 0 14.2855 0ZM22.0548 12.7996C22.0548 17.0826 18.5698 20.5671 14.2855 20.5671H9.75293C9.63958 20.5671 9.53034 20.6092 9.44625 20.6855L7.4293 22.5123V20.5566C7.4293 20.3628 7.30727 20.1901 7.12445 20.1261C4.02658 19.0305 1.94473 16.0862 1.94473 12.7996V8.68161C1.94473 4.39862 5.43018 0.914094 9.71408 0.914094H14.2855C18.5698 0.914094 22.0548 4.39862 22.0548 8.68161V12.7996Z" fill="black" fill-opacity="0.6"/>
<path id="Vector_2" d="M18.0401 13.9369L15.2311 12.1124C14.924 11.9127 14.5583 11.845 14.2005 11.9191C13.8421 11.9945 13.5341 12.2061 13.3343 12.5146L13.2023 12.7175C11.9865 12.3158 10.646 11.8025 9.84342 9.47934L10.1757 9.19049C10.7461 8.69459 10.806 7.82711 10.3101 7.25581L8.11258 4.72788C7.94713 4.53729 7.65828 4.51764 7.46769 4.68263L6.08787 5.88192C4.8776 6.93404 5.44297 8.49029 5.62899 9.00172C5.63722 9.02458 5.64727 9.04652 5.65916 9.068C5.70715 9.15392 6.85296 11.1988 8.70355 13.0836C10.5614 14.9762 13.9157 16.724 14.0185 16.7747C14.4016 17.0234 14.8325 17.1426 15.259 17.1426C16.0076 17.1426 16.7416 16.7756 17.1795 16.1029L18.1749 14.5699C18.312 14.3574 18.2517 14.0745 18.0401 13.9369ZM16.4126 15.6047C16.0008 16.2391 15.1497 16.4191 14.4779 15.9859C14.4445 15.9685 11.1122 14.2331 9.35575 12.4437C7.71404 10.7714 6.62398 8.91351 6.47544 8.65437C6.11346 7.63927 6.17745 7.0154 6.68751 6.57206L7.72272 5.67259L9.62038 7.85545C9.78903 8.04924 9.76938 8.33261 9.57651 8.50034L9.01571 8.98756C8.87905 9.10639 8.82512 9.29423 8.8786 9.467C9.83474 12.574 11.694 13.1842 13.0514 13.6298L13.2493 13.6951C13.4472 13.7619 13.6639 13.6855 13.7772 13.511L14.1013 13.0119C14.168 12.9086 14.2704 12.8386 14.3892 12.8135C14.5085 12.7879 14.6301 12.8117 14.7334 12.8789L17.1594 14.4543L16.4126 15.6047Z" fill="black" fill-opacity="0.6"/>
<path id="Vector_3" d="M13.0432 7.42561C12.8001 7.35569 12.5473 7.49691 12.4783 7.74006C12.4093 7.98275 12.5501 8.2355 12.7927 8.30452C13.4737 8.4983 14.0163 9.04173 14.2082 9.72319C14.2649 9.92429 14.4482 10.0564 14.6479 10.0564C14.689 10.0564 14.7306 10.0509 14.7722 10.0395C15.0149 9.97091 15.1566 9.71862 15.088 9.47547C14.8106 8.49099 14.0268 7.70533 13.0432 7.42561Z" fill="black" fill-opacity="0.6"/>
<path id="Vector_4" d="M16.5213 10.1553C16.5625 10.1553 16.6041 10.1498 16.6457 10.1384C16.8888 10.0699 17.03 9.81712 16.9615 9.57442C16.4222 7.6626 14.9007 6.13789 12.9902 5.594C12.7475 5.52407 12.4948 5.66621 12.4257 5.90891C12.3567 6.1516 12.4975 6.40435 12.7402 6.47336C14.3476 6.93041 15.6278 8.21425 16.0817 9.8226C16.1388 10.0237 16.3216 10.1553 16.5213 10.1553Z" fill="black" fill-opacity="0.6"/>
<path id="Vector_5" d="M12.7932 3.46516C12.5501 3.39523 12.2973 3.53646 12.2283 3.78007C12.1593 4.02276 12.3001 4.27551 12.5427 4.34452C15.2663 5.11922 17.4359 7.29385 18.2046 10.0192C18.2613 10.2203 18.4446 10.3524 18.6443 10.3524C18.6855 10.3524 18.727 10.3469 18.7686 10.3355C19.0113 10.2669 19.153 10.0142 19.0845 9.7715C18.2302 6.74265 15.8198 4.3267 12.7932 3.46516Z" fill="black" fill-opacity="0.6"/>
</g>
</g>
</g>
<defs>
<clipPath id="clip0_12383_44">
<rect width="24" height="24" fill="white"/>
</clipPath>
</defs>
</svg>
