<svg width="24" height="24" viewBox="0 0 24 24" fill="none" xmlns="http://www.w3.org/2000/svg">
<g clip-path="url(#clip0_13033_400)">
<path d="M14.2855 0H9.71408C4.92605 0 1.03064 3.8945 1.03064 8.68161V12.7996C1.03064 16.3646 3.22127 19.5685 6.5152 20.8733V23.543C6.5152 23.7239 6.6217 23.8876 6.78715 23.9607C6.84656 23.9872 6.90964 24 6.97225 24C7.08331 24 7.19346 23.9593 7.27893 23.8816L9.92935 21.4812H14.2855C19.0735 21.4812 22.9689 17.5867 22.9689 12.7996V8.68161C22.9689 3.8945 19.0735 0 14.2855 0ZM22.0548 12.7996C22.0548 17.0826 18.5698 20.5671 14.2855 20.5671H9.75293C9.63958 20.5671 9.53034 20.6092 9.44625 20.6855L7.4293 22.5123V20.5566C7.4293 20.3628 7.30727 20.1901 7.12445 20.1261C4.02658 19.0305 1.94473 16.0862 1.94473 12.7996V8.68161C1.94473 4.39862 5.43018 0.914094 9.71408 0.914094H14.2855C18.5698 0.914094 22.0548 4.39862 22.0548 8.68161V12.7996Z" fill="#8F5E00"/>
<path d="M18.0401 13.9367L15.2311 12.1122C14.924 11.9125 14.5583 11.8448 14.2005 11.9189C13.8422 11.9943 13.5341 12.2059 13.3344 12.5144L13.2023 12.7173C11.9865 12.3156 10.646 11.8023 9.84345 9.47916L10.1757 9.1903C10.7461 8.69441 10.806 7.82693 10.3101 7.25562L8.11261 4.72769C7.94716 4.53711 7.65831 4.51745 7.46772 4.68245L6.0879 5.88174C4.87764 6.93386 5.443 8.49011 5.62902 9.00154C5.63725 9.02439 5.6473 9.04633 5.65919 9.06781C5.70718 9.15374 6.85299 11.1986 8.70358 13.0834C10.5615 14.9761 13.9157 16.7238 14.0186 16.7745C14.4016 17.0232 14.8326 17.1425 15.259 17.1425C16.0076 17.1425 16.7417 16.7755 17.1795 16.1027L18.175 14.5697C18.3121 14.3572 18.2517 14.0743 18.0401 13.9367ZM16.4126 15.6045C16.0008 16.2389 15.1498 16.419 14.4779 15.9857C14.4445 15.9683 11.1122 14.2329 9.35578 12.4436C7.71407 10.7712 6.62401 8.91333 6.47547 8.65419C6.11349 7.63908 6.17748 7.01522 6.68754 6.57188L7.72275 5.67241L9.62041 7.85527C9.78906 8.04906 9.76941 8.33242 9.57654 8.50016L9.01574 8.98737C8.87908 9.10621 8.82515 9.29405 8.87863 9.46682C9.83477 12.5738 11.694 13.184 13.0515 13.6296L13.2494 13.695C13.4473 13.7617 13.6639 13.6854 13.7773 13.5108L14.1013 13.0117C14.168 12.9084 14.2704 12.8385 14.3892 12.8133C14.5085 12.7877 14.6301 12.8115 14.7334 12.8787L17.1594 14.4541L16.4126 15.6045Z" fill="#8F5E00"/>
<path d="M13.0433 7.42564C12.8001 7.35572 12.5474 7.49694 12.4784 7.74009C12.4093 7.98279 12.5501 8.23553 12.7928 8.30455C13.4738 8.49833 14.0163 9.04176 14.2083 9.72322C14.265 9.92432 14.4482 10.0564 14.648 10.0564C14.6891 10.0564 14.7307 10.0509 14.7723 10.0395C15.015 9.97094 15.1567 9.71865 15.0881 9.4755C14.8107 8.49102 14.0268 7.70536 13.0433 7.42564Z" fill="#8F5E00"/>
<path d="M16.5213 10.1551C16.5625 10.1551 16.6041 10.1496 16.6457 10.1382C16.8888 10.0696 17.03 9.8169 16.9615 9.57421C16.4222 7.66238 14.9007 6.13767 12.9902 5.59379C12.7475 5.52386 12.4948 5.666 12.4257 5.90869C12.3567 6.15138 12.4975 6.40413 12.7402 6.47315C14.3476 6.93019 15.6278 8.21404 16.0817 9.82239C16.1388 10.0235 16.3216 10.1551 16.5213 10.1551Z" fill="#8F5E00"/>
<path d="M12.7931 3.46535C12.55 3.39542 12.2972 3.53665 12.2282 3.78025C12.1592 4.02294 12.3 4.27569 12.5427 4.3447C15.2662 5.1194 17.4358 7.29403 18.2046 10.0194C18.2613 10.2205 18.4445 10.3526 18.6443 10.3526C18.6854 10.3526 18.727 10.3471 18.7686 10.3357C19.0113 10.2671 19.153 10.0144 19.0844 9.77168C18.2302 6.74283 15.8197 4.32688 12.7931 3.46535Z" fill="#8F5E00"/>
</g>
<defs>
<clipPath id="clip0_13033_400">
<rect width="24" height="24" fill="white"/>
</clipPath>
</defs>
</svg>
